<svg width="300" height="300" viewBox="0 0 300 300" fill="none" xmlns="http://www.w3.org/2000/svg">
<g clip-path="url(#clip0)">
<g filter="url(#filter0_f)">
<path d="M149.892 267C214.569 267 267 214.569 267 149.892C267 85.215 214.569 32.7839 149.892 32.7839C85.215 32.7839 32.7839 85.215 32.7839 149.892C32.7839 214.569 85.215 267 149.892 267Z" fill="url(#paint0_radial)"/>
</g>
<path d="M150 229C193.631 229 229 193.631 229 150C229 106.37 193.631 71 150 71C106.37 71 71 106.37 71 150C71 193.631 106.37 229 150 229Z" fill="url(#paint1_radial)" stroke="#F1B04E"/>
</g>
<defs>
<filter id="filter0_f" x="-17.2161" y="-17.2161" width="334.216" height="334.216" filterUnits="userSpaceOnUse" color-interpolation-filters="sRGB">
<feFlood flood-opacity="0" result="BackgroundImageFix"/>
<feBlend mode="normal" in="SourceGraphic" in2="BackgroundImageFix" result="shape"/>
<feGaussianBlur stdDeviation="25" result="effect1_foregroundBlur"/>
</filter>
<radialGradient id="paint0_radial" cx="0" cy="0" r="1" gradientUnits="userSpaceOnUse" gradientTransform="translate(196.487 86.0571) rotate(132.136) scale(244.006)">
<stop stop-color="#FFF72C"/>
<stop offset="1" stop-color="#DF7800"/>
</radialGradient>
<radialGradient id="paint1_radial" cx="0" cy="0" r="1" gradientUnits="userSpaceOnUse" gradientTransform="translate(181.667 106.618) rotate(132.136) scale(165.83)">
<stop stop-color="#FFF72C"/>
<stop offset="1" stop-color="#DF7800"/>
</radialGradient>
<clipPath id="clip0">
<rect width="300" height="300" fill="white"/>
</clipPath>
</defs>
</svg>
