<svg width="300" height="300" viewBox="0 0 300 300" fill="none" xmlns="http://www.w3.org/2000/svg">
<g clip-path="url(#clip0)">
<g filter="url(#filter0_f)">
<path d="M97.9748 190.462C135.92 190.462 166.681 159.701 166.681 121.755C166.681 83.8097 135.92 53.0488 97.9748 53.0488C60.0293 53.0488 29.2683 83.8097 29.2683 121.755C29.2683 159.701 60.0293 190.462 97.9748 190.462Z" fill="url(#paint0_radial)"/>
</g>
<path d="M98.4241 171.507C122.409 171.507 141.852 152.064 141.852 128.08C141.852 104.095 122.409 84.6519 98.4241 84.6519C74.4396 84.6519 54.9963 104.095 54.9963 128.08C54.9963 152.064 74.4396 171.507 98.4241 171.507Z" fill="url(#paint1_radial)"/>
<g filter="url(#filter1_ii)">
<path fill-rule="evenodd" clip-rule="evenodd" d="M145.422 247.272V247.274H88.3131C59.8875 247.274 36.8447 224.232 36.8447 195.806C36.8447 167.381 59.8875 144.337 88.3131 144.337H91.1332C101.11 144.337 110.458 147.028 118.491 151.725C128.934 120.785 158.196 98.5071 192.659 98.5071H196.537C237.617 98.5071 270.919 131.809 270.919 172.889C270.919 213.97 237.617 247.272 196.537 247.272H145.422Z" fill="white"/>
</g>
</g>
<defs>
<filter id="filter0_f" x="-20.7317" y="3.04877" width="237.413" height="237.413" filterUnits="userSpaceOnUse" color-interpolation-filters="sRGB">
<feFlood flood-opacity="0" result="BackgroundImageFix"/>
<feBlend mode="normal" in="SourceGraphic" in2="BackgroundImageFix" result="shape"/>
<feGaussianBlur stdDeviation="25" result="effect1_foregroundBlur"/>
</filter>
<filter id="filter1_ii" x="18.8447" y="83.5071" width="260.075" height="174.767" filterUnits="userSpaceOnUse" color-interpolation-filters="sRGB">
<feFlood flood-opacity="0" result="BackgroundImageFix"/>
<feBlend mode="normal" in="SourceGraphic" in2="BackgroundImageFix" result="shape"/>
<feColorMatrix in="SourceAlpha" type="matrix" values="0 0 0 0 0 0 0 0 0 0 0 0 0 0 0 0 0 0 127 0" result="hardAlpha"/>
<feOffset dx="8" dy="-15"/>
<feGaussianBlur stdDeviation="15"/>
<feComposite in2="hardAlpha" operator="arithmetic" k2="-1" k3="1"/>
<feColorMatrix type="matrix" values="0 0 0 0 0 0 0 0 0 0 0 0 0 0 0 0 0 0 0.2 0"/>
<feBlend mode="normal" in2="shape" result="effect1_innerShadow"/>
<feColorMatrix in="SourceAlpha" type="matrix" values="0 0 0 0 0 0 0 0 0 0 0 0 0 0 0 0 0 0 127 0" result="hardAlpha"/>
<feOffset dx="-18" dy="11"/>
<feGaussianBlur stdDeviation="15"/>
<feComposite in2="hardAlpha" operator="arithmetic" k2="-1" k3="1"/>
<feColorMatrix type="matrix" values="0 0 0 0 1 0 0 0 0 1 0 0 0 0 1 0 0 0 1 0"/>
<feBlend mode="normal" in2="effect1_innerShadow" result="effect2_innerShadow"/>
</filter>
<radialGradient id="paint0_radial" cx="0" cy="0" r="1" gradientUnits="userSpaceOnUse" gradientTransform="translate(125.312 84.3038) rotate(132.136) scale(143.157)">
<stop stop-color="#FFF72C"/>
<stop offset="1" stop-color="#DF7800"/>
</radialGradient>
<radialGradient id="paint1_radial" cx="0" cy="0" r="1" gradientUnits="userSpaceOnUse" gradientTransform="translate(115.702 104.408) rotate(132.136) scale(90.4859)">
<stop stop-color="#FFF72C"/>
<stop offset="1" stop-color="#DF7800"/>
</radialGradient>
<clipPath id="clip0">
<rect width="300" height="300" fill="white"/>
</clipPath>
</defs>
</svg>
