<svg width="300" height="300" viewBox="0 0 300 300" fill="none" xmlns="http://www.w3.org/2000/svg">
<path d="M35.8208 206.462L58.777 183.728L53.4384 201.025L63.582 203.99L39.5579 227.219L45.4304 209.921L35.8208 206.462Z" fill="url(#paint0_radial)"/>
<g filter="url(#filter0_ii)">
<path fill-rule="evenodd" clip-rule="evenodd" d="M126.763 208.962V208.965H70.9223C43.1277 208.965 20.5969 186.633 20.5969 159.086C20.5969 131.539 43.1277 109.208 70.9223 109.208H73.6792C83.4348 109.208 92.5751 111.816 100.43 116.366C110.64 86.3821 139.252 64.793 172.95 64.793H176.742C216.909 64.793 249.471 97.0662 249.471 136.878C249.471 176.688 216.909 208.962 176.742 208.962H126.763Z" fill="white"/>
</g>
<g filter="url(#filter1_ii)">
<path fill-rule="evenodd" clip-rule="evenodd" d="M217.862 210.054V210.056H249.811C265.715 210.056 278.607 197.279 278.607 181.518C278.607 165.755 265.715 152.979 249.811 152.979H248.234C242.653 152.979 237.424 154.471 232.93 157.074C227.087 139.918 210.717 127.565 191.436 127.565H189.267C166.284 127.565 147.653 146.031 147.653 168.81C147.653 191.589 166.284 210.054 189.267 210.054H217.862Z" fill="url(#paint1_radial)" fill-opacity="0.19"/>
</g>
<path d="M197.015 212.251L219.971 189.053L214.632 206.704L224.776 209.73L200.752 233.432L206.624 215.781L197.015 212.251Z" fill="url(#paint2_radial)"/>
<path d="M95.8208 216.931L143.955 167.751L132.761 205.171L154.03 211.585L103.657 261.834L115.97 224.415L95.8208 216.931Z" fill="url(#paint3_radial)"/>
<defs>
<filter id="filter0_ii" x="2.59692" y="49.793" width="254.874" height="170.172" filterUnits="userSpaceOnUse" color-interpolation-filters="sRGB">
<feFlood flood-opacity="0" result="BackgroundImageFix"/>
<feBlend mode="normal" in="SourceGraphic" in2="BackgroundImageFix" result="shape"/>
<feColorMatrix in="SourceAlpha" type="matrix" values="0 0 0 0 0 0 0 0 0 0 0 0 0 0 0 0 0 0 127 0" result="hardAlpha"/>
<feOffset dx="8" dy="-15"/>
<feGaussianBlur stdDeviation="15"/>
<feComposite in2="hardAlpha" operator="arithmetic" k2="-1" k3="1"/>
<feColorMatrix type="matrix" values="0 0 0 0 0 0 0 0 0 0 0 0 0 0 0 0 0 0 0.2 0"/>
<feBlend mode="normal" in2="shape" result="effect1_innerShadow"/>
<feColorMatrix in="SourceAlpha" type="matrix" values="0 0 0 0 0 0 0 0 0 0 0 0 0 0 0 0 0 0 127 0" result="hardAlpha"/>
<feOffset dx="-18" dy="11"/>
<feGaussianBlur stdDeviation="15"/>
<feComposite in2="hardAlpha" operator="arithmetic" k2="-1" k3="1"/>
<feColorMatrix type="matrix" values="0 0 0 0 1 0 0 0 0 1 0 0 0 0 1 0 0 0 1 0"/>
<feBlend mode="normal" in2="effect1_innerShadow" result="effect2_innerShadow"/>
</filter>
<filter id="filter1_ii" x="129.653" y="112.565" width="156.954" height="108.491" filterUnits="userSpaceOnUse" color-interpolation-filters="sRGB">
<feFlood flood-opacity="0" result="BackgroundImageFix"/>
<feBlend mode="normal" in="SourceGraphic" in2="BackgroundImageFix" result="shape"/>
<feColorMatrix in="SourceAlpha" type="matrix" values="0 0 0 0 0 0 0 0 0 0 0 0 0 0 0 0 0 0 127 0" result="hardAlpha"/>
<feOffset dx="8" dy="-15"/>
<feGaussianBlur stdDeviation="15"/>
<feComposite in2="hardAlpha" operator="arithmetic" k2="-1" k3="1"/>
<feColorMatrix type="matrix" values="0 0 0 0 0 0 0 0 0 0 0 0 0 0 0 0 0 0 0.2 0"/>
<feBlend mode="normal" in2="shape" result="effect1_innerShadow"/>
<feColorMatrix in="SourceAlpha" type="matrix" values="0 0 0 0 0 0 0 0 0 0 0 0 0 0 0 0 0 0 127 0" result="hardAlpha"/>
<feOffset dx="-18" dy="11"/>
<feGaussianBlur stdDeviation="15"/>
<feComposite in2="hardAlpha" operator="arithmetic" k2="-1" k3="1"/>
<feColorMatrix type="matrix" values="0 0 0 0 1 0 0 0 0 1 0 0 0 0 1 0 0 0 1 0"/>
<feBlend mode="normal" in2="effect1_innerShadow" result="effect2_innerShadow"/>
</filter>
<radialGradient id="paint0_radial" cx="0" cy="0" r="1" gradientUnits="userSpaceOnUse" gradientTransform="translate(55.2238 193.62) rotate(120.006) scale(38.7989 33.7739)">
<stop stop-color="#FFF72C"/>
<stop offset="1" stop-color="#DF7800"/>
</radialGradient>
<radialGradient id="paint1_radial" cx="0" cy="0" r="1" gradientUnits="userSpaceOnUse" gradientTransform="translate(293.157 138.382) rotate(168.214) scale(70.6037 66.2102)">
<stop stop-color="#FF4F4F"/>
<stop offset="1"/>
</radialGradient>
<radialGradient id="paint2_radial" cx="0" cy="0" r="1" gradientUnits="userSpaceOnUse" gradientTransform="translate(216.418 199.147) rotate(119.508) scale(39.3944 33.9424)">
<stop stop-color="#FFF72C"/>
<stop offset="1" stop-color="#DF7800"/>
</radialGradient>
<radialGradient id="paint3_radial" cx="0" cy="0" r="1" gradientUnits="userSpaceOnUse" gradientTransform="translate(136.504 189.152) rotate(119.238) scale(83.2944 71.3582)">
<stop stop-color="#FFF72C"/>
<stop offset="1" stop-color="#DF7800"/>
</radialGradient>
</defs>
</svg>
