<svg width="1920" height="1080" viewBox="0 0 1920 1080" fill="none" xmlns="http://www.w3.org/2000/svg">
<g clip-path="url(#clip0)">
<rect width="1920" height="1080" fill="url(#paint0_linear)"/>
<path opacity="0.2" d="M974.128 379.569C929.829 415.675 886.911 456.078 859.946 507.048C820.29 581.988 820.901 676.257 861.597 745.745C896.053 804.66 954.159 843.023 1003.87 888.533C1065.12 944.58 1114.67 1012.88 1161.57 1082.34C1186.77 1119.65 1212.18 1158.34 1248.98 1183.32C1300.09 1218.01 1368.99 1221.44 1429.16 1199.17C1489.32 1176.9 1540.83 1130.93 1577.82 1076.3C1597.5 1047.23 1613.78 1014.37 1616.13 979.812C1618.61 943.246 1605.37 907.899 1608.12 871.333C1610.66 837.449 1626.79 805.399 1645.64 776.586C1670.24 738.966 1700.03 705.001 1734.11 675.695C1772.75 642.518 1816.25 616.047 1855.01 583.138C1893.77 550.23 1928.85 508.565 1940.99 458.997C1952.4 412.399 1942.37 364.619 1930.2 319.73C1910.37 246.378 1884.61 174.763 1853.17 105.594C1832.06 59.2407 1807.95 13.5221 1772.65 -21.9638C1705.15 -89.8217 1597.68 -112.121 1504.86 -77.5442C1427.97 -48.8934 1365.87 13.2865 1312.4 78.3725C1263.63 137.724 1219.15 213.221 1155.93 257.273C1095.61 299.261 1031.99 332.427 974.128 379.569Z" fill="#665CF1" fill-opacity="0.5"/>
<path opacity="0.2" d="M-356.872 361.569C-401.171 397.675 -444.089 438.078 -471.054 489.048C-510.71 563.988 -510.099 658.257 -469.403 727.745C-434.947 786.66 -376.841 825.023 -327.13 870.533C-265.884 926.58 -216.332 994.883 -169.434 1064.34C-144.234 1101.65 -118.824 1140.34 -82.0184 1165.32C-30.9129 1200.01 37.9855 1203.44 98.1552 1181.17C158.325 1158.9 209.831 1112.93 246.816 1058.3C266.498 1029.23 282.78 996.371 285.129 961.812C287.614 925.246 274.367 889.899 277.118 853.333C279.665 819.449 295.79 787.399 314.636 758.586C339.242 720.966 369.027 687.001 403.112 657.695C441.746 624.518 485.255 598.047 524.014 565.138C562.772 532.23 597.855 490.565 609.989 440.997C621.401 394.399 611.371 346.619 599.197 301.73C579.374 228.378 553.614 156.763 522.171 87.5942C501.06 41.2407 476.952 -4.47784 441.646 -39.9637C374.149 -107.822 266.677 -130.121 173.862 -95.5441C96.9655 -66.8933 34.8696 -4.71346 -18.6048 60.3725C-67.3691 119.724 -111.853 195.221 -175.069 239.273C-235.387 281.261 -299.008 314.427 -356.872 361.569Z" fill="#665CF1" fill-opacity="0.5"/>
<path opacity="0.2" d="M1075.13 667.569C1030.83 703.675 987.911 744.078 960.946 795.049C921.29 869.988 921.901 964.257 962.597 1033.74C997.053 1092.66 1055.16 1131.02 1104.87 1176.53C1166.12 1232.58 1215.67 1300.88 1262.57 1370.34C1287.77 1407.65 1313.18 1446.34 1349.98 1471.32C1401.09 1506.01 1469.99 1509.44 1530.16 1487.17C1590.32 1464.9 1641.83 1418.93 1678.82 1364.3C1698.5 1335.23 1714.78 1302.37 1717.13 1267.81C1719.61 1231.25 1706.37 1195.9 1709.12 1159.33C1711.66 1125.45 1727.79 1093.4 1746.64 1064.59C1771.24 1026.97 1801.03 993.001 1835.11 963.695C1873.75 930.518 1917.25 904.047 1956.01 871.139C1994.77 838.23 2029.85 796.565 2041.99 746.997C2053.4 700.399 2043.37 652.619 2031.2 607.73C2011.37 534.378 1985.61 462.763 1954.17 393.594C1933.06 347.241 1908.95 301.522 1873.65 266.036C1806.15 198.178 1698.68 175.879 1605.86 210.456C1528.97 239.107 1466.87 301.287 1413.4 366.373C1364.63 425.724 1320.15 501.221 1256.93 545.273C1196.61 587.261 1132.99 620.427 1075.13 667.569Z" fill="#529EFE"/>
<path opacity="0.2" d="M-52.872 436.569C-97.1714 472.675 -140.089 513.078 -167.054 564.048C-206.71 638.988 -206.099 733.257 -165.403 802.745C-130.947 861.66 -72.8407 900.023 -23.1297 945.533C38.1162 1001.58 87.6682 1069.88 134.566 1139.34C159.766 1176.65 185.176 1215.34 221.982 1240.32C273.087 1275.01 341.985 1278.44 402.155 1256.17C462.325 1233.9 513.831 1187.93 550.816 1133.3C570.498 1104.23 586.78 1071.37 589.129 1036.81C591.614 1000.25 578.367 964.899 581.118 928.333C583.665 894.449 599.79 862.399 618.636 833.586C643.242 795.966 673.027 762.001 707.112 732.695C745.746 699.518 789.255 673.047 828.014 640.138C866.772 607.23 901.855 565.565 913.989 515.997C925.401 469.399 915.371 421.619 903.197 376.73C883.374 303.378 857.614 231.763 826.171 162.594C805.06 116.241 780.952 70.5221 745.646 35.0362C678.149 -32.8217 570.677 -55.121 477.862 -20.5442C400.966 8.10661 338.87 70.2865 285.395 135.372C236.631 194.724 192.147 270.221 128.931 314.273C68.6128 356.261 4.99173 389.427 -52.872 436.569Z" fill="#529EFE"/>
</g>
<defs>
<linearGradient id="paint0_linear" x1="0" y1="0" x2="1920" y2="1080" gradientUnits="userSpaceOnUse">
<stop stop-color="#519DFC"/>
<stop offset="1" stop-color="#606AEE"/>
</linearGradient>
<clipPath id="clip0">
<rect width="1920" height="1080" fill="white"/>
</clipPath>
</defs>
</svg>
