<svg width="1920" height="1080" viewBox="0 0 1920 1080" fill="none" xmlns="http://www.w3.org/2000/svg">
<g clip-path="url(#clip0)">
<rect width="1920" height="1080" fill="#00579B"/>
<path opacity="0.2" d="M884.546 477.214C840.247 513.32 797.329 553.723 770.364 604.694C730.708 679.634 731.319 773.903 772.015 843.39C806.471 902.306 864.577 940.668 914.288 986.179C975.534 1042.23 1025.09 1110.53 1071.98 1179.99C1097.18 1217.29 1122.59 1255.98 1159.4 1280.97C1210.51 1315.65 1279.4 1319.08 1339.57 1296.81C1399.74 1274.55 1451.25 1228.58 1488.23 1173.94C1507.92 1144.87 1524.2 1112.02 1526.55 1077.46C1529.03 1040.89 1515.78 1005.54 1518.54 968.979C1521.08 935.094 1537.21 903.044 1556.05 874.231C1580.66 836.611 1610.44 802.647 1644.53 773.34C1683.16 740.163 1726.67 713.692 1765.43 680.784C1804.19 647.876 1839.27 606.21 1851.41 556.642C1862.82 510.044 1852.79 462.264 1840.61 417.375C1820.79 344.024 1795.03 272.409 1763.59 203.24C1742.48 156.886 1718.37 111.168 1683.06 75.6817C1615.57 7.82381 1508.1 -14.4755 1415.28 20.1013C1338.38 48.7521 1276.29 110.932 1222.81 176.018C1174.05 235.37 1129.56 310.867 1066.35 354.918C1006.03 396.906 942.41 430.073 884.546 477.214Z" fill="#00457B"/>
<path opacity="0.2" d="M1238.13 367.569C1193.83 403.675 1150.91 444.078 1123.95 495.048C1084.29 569.988 1084.9 664.257 1125.6 733.745C1160.05 792.66 1218.16 831.023 1267.87 876.533C1329.12 932.58 1378.67 1000.88 1425.57 1070.34C1450.77 1107.65 1476.18 1146.34 1512.98 1171.32C1564.09 1206.01 1632.99 1209.44 1693.16 1187.17C1753.32 1164.9 1804.83 1118.93 1841.82 1064.3C1861.5 1035.23 1877.78 1002.37 1880.13 967.812C1882.61 931.246 1869.37 895.899 1872.12 859.333C1874.66 825.449 1890.79 793.399 1909.64 764.586C1934.24 726.966 1964.03 693.001 1998.11 663.695C2036.75 630.518 2080.25 604.047 2119.01 571.138C2157.77 538.23 2192.85 496.565 2204.99 446.997C2216.4 400.399 2206.37 352.619 2194.2 307.73C2174.37 234.378 2148.61 162.763 2117.17 93.5942C2096.06 47.2407 2071.95 1.5221 2036.65 -33.9638C1969.15 -101.822 1861.68 -124.121 1768.86 -89.5442C1691.97 -60.8934 1629.87 1.28648 1576.4 66.3725C1527.63 125.724 1483.15 201.221 1419.93 245.273C1359.61 287.261 1295.99 320.427 1238.13 367.569Z" fill="#044C85"/>
</g>
<defs>
<clipPath id="clip0">
<rect width="1920" height="1080" fill="white"/>
</clipPath>
</defs>
</svg>
