<svg width="20" height="20" viewBox="0 0 20 20" fill="none" xmlns="http://www.w3.org/2000/svg">
<path fill-rule="evenodd" clip-rule="evenodd" d="M5.33 0.000396729H14.669C18.07 0.000396729 19.99 1.9294 20 5.3304V14.6704C20 18.0704 18.07 20.0004 14.669 20.0004H5.33C1.929 20.0004 0 18.0704 0 14.6704V5.3304C0 1.9294 1.929 0.000396729 5.33 0.000396729ZM10.049 15.8604C10.48 15.8604 10.839 15.5404 10.879 15.1104V4.9204C10.919 4.6104 10.77 4.2994 10.5 4.1304C10.219 3.9604 9.879 3.9604 9.61 4.1304C9.339 4.2994 9.19 4.6104 9.219 4.9204V15.1104C9.27 15.5404 9.629 15.8604 10.049 15.8604ZM14.65 15.8604C15.07 15.8604 15.429 15.5404 15.48 15.1104V11.8304C15.509 11.5094 15.36 11.2104 15.089 11.0404C14.82 10.8704 14.48 10.8704 14.2 11.0404C13.929 11.2104 13.78 11.5094 13.82 11.8304V15.1104C13.86 15.5404 14.219 15.8604 14.65 15.8604ZM6.219 15.1104C6.179 15.5404 5.82 15.8604 5.389 15.8604C4.959 15.8604 4.599 15.5404 4.56 15.1104V8.2004C4.53 7.8894 4.679 7.5804 4.95 7.4104C5.219 7.2404 5.56 7.2404 5.83 7.4104C6.099 7.5804 6.25 7.8894 6.219 8.2004V15.1104Z" fill="white"/>
</svg>
