<svg width="12" height="10" viewBox="0 0 12 10" fill="none" xmlns="http://www.w3.org/2000/svg">
<path d="M0.166504 5.29174V4.70841C0.166504 4.54733 0.297088 4.41674 0.458171 4.41674H9.89067L7.29484 1.82674C7.23962 1.77198 7.20856 1.69743 7.20856 1.61966C7.20856 1.54189 7.23962 1.46734 7.29484 1.41258L7.709 1.00424C7.76377 0.949027 7.83832 0.917969 7.91609 0.917969C7.99386 0.917969 8.06841 0.949027 8.12317 1.00424L11.7048 4.58008C11.7869 4.66205 11.8331 4.77325 11.8332 4.88924V5.11091C11.8318 5.22665 11.7859 5.33741 11.7048 5.42008L8.12317 8.99591C8.06841 9.05113 7.99386 9.08218 7.91609 9.08218C7.83832 9.08218 7.76377 9.05113 7.709 8.99591L7.29484 8.58174C7.23997 8.52798 7.20905 8.4544 7.20905 8.37758C7.20905 8.30076 7.23997 8.22717 7.29484 8.17341L9.89067 5.58341H0.458171C0.297088 5.58341 0.166504 5.45283 0.166504 5.29174Z" fill="#ee534d"/>
</svg>
