<svg width="20" height="20" viewBox="0 0 20 20" fill="none" xmlns="http://www.w3.org/2000/svg">
<path fill-rule="evenodd" clip-rule="evenodd" d="M14.6023 6.1633V7.44108C16.0376 7.88909 17.0834 9.18841 17.0834 10.7403V14.8544C17.0834 16.7756 15.4906 18.3333 13.5269 18.3333H6.47408C4.50955 18.3333 2.91675 16.7756 2.91675 14.8544V10.7403C2.91675 9.18841 3.96337 7.88909 5.39782 7.44108V6.1633C5.40629 3.67895 7.46397 1.66663 9.98738 1.66663C12.5447 1.66663 14.6023 3.67895 14.6023 6.1633ZM10.0043 3.11583C11.7233 3.11583 13.1205 4.48223 13.1205 6.1633V7.26138H6.87967V6.14674C6.88814 4.47395 8.28533 3.11583 10.0043 3.11583ZM10.741 13.7124C10.741 14.1182 10.4108 14.4411 9.99585 14.4411C9.5894 14.4411 9.25915 14.1182 9.25915 13.7124V11.874C9.25915 11.4765 9.5894 11.1535 9.99585 11.1535C10.4108 11.1535 10.741 11.4765 10.741 11.874V13.7124Z" fill="#FFB200"/>
</svg>
