<svg width="20" height="20" viewBox="0 0 20 20" fill="none" xmlns="http://www.w3.org/2000/svg">
<path fill-rule="evenodd" clip-rule="evenodd" d="M16.8803 12.88C16.3175 12.3179 16.001 11.5554 16.0003 10.76V8C16.0003 6.70178 15.5792 5.43858 14.8003 4.4L13.9003 3.2C13.3337 2.44458 12.4445 2 11.5003 2H11.0003V0.5C11.0003 0.223858 10.7764 0 10.5003 0H9.50027C9.22412 0 9.00027 0.223858 9.00027 0.5V2H8.50027C7.55599 2 6.66683 2.44458 6.10026 3.2L5.20026 4.4C4.42133 5.43858 4.00027 6.70178 4.00027 8V10.76C3.99956 11.5554 3.68303 12.3179 3.12027 12.88L2.29026 13.71C2.10552 13.8963 2.00137 14.1477 2.00026 14.41V15C2.00026 15.5523 2.44798 16 3.00026 16H17.0003C17.5525 16 18.0003 15.5523 18.0003 15V14.41C17.9992 14.1477 17.895 13.8963 17.7103 13.71L16.8803 12.88ZM14.0003 14H6.00027V8C6.00027 7.13452 6.28098 6.29238 6.80027 5.6L7.70026 4.4C7.88912 4.14819 8.18551 4 8.50027 4H11.5003C11.815 4 12.1114 4.14819 12.3003 4.4L13.2003 5.6C13.7196 6.29238 14.0003 7.13452 14.0003 8V14ZM12.0003 18C12.0003 19.1046 11.1048 20 10.0003 20C8.8957 20 8.00027 19.1046 8.00027 18H12.0003ZM3.59027 3.21C3.70956 3.05475 3.6829 2.83262 3.53027 2.71L2.53027 1.93C2.44666 1.86047 2.33834 1.82797 2.23026 1.84C2.13559 1.86112 2.05299 1.91858 2.00026 2C0.808303 3.58596 0.112409 5.48923 0.00026498 7.47C-0.00977353 7.60792 0.0414381 7.74327 0.140265 7.84C0.231842 7.94239 0.362899 8.00064 0.500265 8H1.50027C1.76675 7.99523 1.98463 7.78607 2.00026 7.52C2.10434 5.96023 2.65644 4.46367 3.59027 3.21ZM17.7303 1.84C17.8391 1.85194 17.9375 1.91026 18.0003 2C19.188 3.58824 19.8834 5.4902 20.0003 7.47C19.9984 7.60777 19.9448 7.73981 19.8503 7.84C19.7572 7.94035 19.6271 7.99818 19.4903 8H18.4903C18.2256 7.99492 18.0108 7.78447 18.0003 7.52C17.8816 5.95503 17.312 4.45798 16.3603 3.21C16.241 3.05475 16.2676 2.83262 16.4203 2.71L17.4203 1.93C17.5085 1.86181 17.6193 1.82964 17.7303 1.84Z" fill="#212353"/>
</svg>
