<svg width="24" height="24" viewBox="0 0 24 24" fill="none" xmlns="http://www.w3.org/2000/svg">
<path fill-rule="evenodd" clip-rule="evenodd" d="M8 8V10H18C19.1046 10 20 10.8954 20 12V20C20 21.1046 19.1046 22 18 22H6C4.89543 22 4 21.1046 4 20V12C4 10.8954 4.89543 10 6 10V8C6 4.68629 8.68629 2 12 2C15.3137 2 18 4.68629 18 8H16C16 5.79086 14.2091 4 12 4C9.79086 4 8 5.79086 8 8ZM15.5 15C15.2239 15 15 15.2239 15 15.5V16.5C15 16.7761 15.2239 17 15.5 17H16.5C16.7761 17 17 16.7761 17 16.5V15.5C17 15.2239 16.7761 15 16.5 15H15.5ZM11 15.5C11 15.2239 11.2239 15 11.5 15H12.5C12.7761 15 13 15.2239 13 15.5V16.5C13 16.7761 12.7761 17 12.5 17H11.5C11.2239 17 11 16.7761 11 16.5V15.5ZM7 15.5V16.5C7 16.7761 7.22386 17 7.5 17H8.5C8.77614 17 9 16.7761 9 16.5V15.5C9 15.2239 8.77614 15 8.5 15H7.5C7.22386 15 7 15.2239 7 15.5Z" fill="url(#paint0_linear)"/>
<defs>
<linearGradient id="paint0_linear" x1="4" y1="2" x2="23.2585" y2="7.0923" gradientUnits="userSpaceOnUse">
<stop stop-color="#00579B"/>
<stop offset="0.0001" stop-color="#51A0FD"/>
<stop offset="1" stop-color="#606AEE"/>
</linearGradient>
</defs>
</svg>
