<svg width="22" height="28" viewBox="0 0 22 28" fill="none" xmlns="http://www.w3.org/2000/svg">
<path fill-rule="evenodd" clip-rule="evenodd" d="M11.0056 0.666748C7.09353 0.666748 3.9222 3.8516 3.9222 7.78031C3.9222 11.709 7.09353 14.8939 11.0056 14.8939C14.9176 14.8939 18.0889 11.709 18.0889 7.78031C18.0889 3.8516 14.9176 0.666748 11.0056 0.666748ZM11.0055 2.59694C13.856 2.59694 16.1668 4.9176 16.1668 7.78028C16.1668 10.643 13.856 12.9636 11.0055 12.9636C8.15497 12.9636 5.84416 10.643 5.84416 7.78028C5.84416 4.9176 8.15497 2.59694 11.0055 2.59694ZM8.10641 17.7613C7.06945 17.8333 6.02129 17.9813 4.98741 18.2029C2.99191 18.6139 1.39548 19.4352 0.715993 20.7999C0.459711 21.3337 0.330861 21.9051 0.333035 22.4837C0.332266 23.0581 0.460073 23.6303 0.707165 24.1538C1.3596 25.5029 2.77008 26.2663 4.67466 26.6895L5.01584 26.7607C6.02165 26.9876 7.07013 27.1404 8.12563 27.2122C8.21552 27.2385 8.42978 27.263 8.66362 27.2749L8.85597 27.2822C8.95487 27.2844 9.06711 27.285 9.23435 27.285C10.7515 27.3685 12.3242 27.3442 13.8897 27.2109C14.7239 27.1538 15.5638 27.0447 16.3967 26.8849L17.0198 26.7555C19.0764 26.3498 20.6164 25.5782 21.2911 24.1553C21.7913 23.0989 21.7913 21.873 21.2914 20.8171C20.6184 19.3978 19.0979 18.6326 17.0042 18.2013C16.1827 18.0259 15.3479 17.8961 14.5072 17.8133L13.8926 17.7613C11.9676 17.5915 10.0314 17.5915 8.10641 17.7613ZM13.7244 19.6841L13.7413 19.6855C14.7061 19.7534 15.6651 19.8888 16.6112 20.0908C18.1664 20.4112 19.2218 20.9423 19.5557 21.6465C19.8072 22.1775 19.8072 22.7945 19.5555 23.326C19.2435 23.9839 18.2956 24.4923 16.9256 24.8029L16.6256 24.8665C15.6609 25.0817 14.7051 25.2204 13.743 25.2864C12.2502 25.4133 10.7662 25.4363 9.28596 25.3562L8.76116 25.3472C8.61547 25.3398 8.49269 25.3257 8.37891 25.3029C7.47791 25.2349 6.66716 25.1273 5.87997 24.9712L5.40994 24.8717C3.84988 24.566 2.78514 24.0325 2.43992 23.3187C2.31913 23.0627 2.2546 22.7739 2.25499 22.4814C2.25391 22.1905 2.31758 21.9081 2.44118 21.6506C2.77684 20.9766 3.9052 20.3962 5.38101 20.0922C6.33392 19.888 7.29243 19.7526 8.25686 19.6855C10.0876 19.5242 11.9112 19.5242 13.7244 19.6841Z" fill="#200E32"/>
</svg>
