<svg width="12" height="12" viewBox="0 0 12 12" fill="none" xmlns="http://www.w3.org/2000/svg">
<path fill-rule="evenodd" clip-rule="evenodd" d="M0.166504 6.00001C0.166504 2.77834 2.77818 0.166672 5.99984 0.166672C7.54693 0.166672 9.03067 0.781253 10.1246 1.87522C11.2186 2.96918 11.8332 4.45291 11.8332 6.00001C11.8332 9.22167 9.2215 11.8333 5.99984 11.8333C2.77818 11.8333 0.166504 9.22167 0.166504 6.00001ZM9.49983 8.91668V9.07418C11.0532 7.22047 10.9329 4.48718 9.2228 2.77704C7.51266 1.0669 4.77938 0.946656 2.92567 2.50001H6.87483C7.03592 2.50001 7.1665 2.63059 7.1665 2.79168V3.37501C7.1665 3.53609 7.03592 3.66668 6.87483 3.66668H6.58317C6.261 3.66668 5.99983 3.92784 5.99983 4.25001V4.83334C5.99983 5.15551 5.73867 5.41668 5.4165 5.41668H5.12483C4.96375 5.41668 4.83317 5.54726 4.83317 5.70834C4.83317 5.86943 4.96375 6.00001 5.12483 6.00001H5.70817C5.86925 6.00001 5.99983 6.13059 5.99983 6.29168V7.16668H4.24983C3.92767 7.16668 3.6665 6.90551 3.6665 6.58334V6.29168C3.6665 6.13059 3.53592 6.00001 3.37483 6.00001H3.08317C2.761 6.00001 2.49983 5.73884 2.49983 5.41668V3.95834C2.49983 3.79726 2.36925 3.66668 2.20817 3.66668H1.96317C1.12997 5.10981 1.12952 6.88771 1.96197 8.33127C2.79442 9.77483 4.33345 10.665 5.99983 10.6667C6.19493 10.6649 6.38973 10.6513 6.58317 10.6258V8.62501C6.58635 8.54875 6.55826 8.47449 6.5054 8.41943C6.45254 8.36437 6.37949 8.33328 6.30317 8.33334C6.22426 8.3349 6.14797 8.30505 6.09108 8.25035C6.03419 8.19565 6.00137 8.12058 5.99983 8.04168V7.16668H6.87483C7.03592 7.16668 7.1665 7.29726 7.1665 7.45834C7.1665 7.61943 7.29708 7.75001 7.45817 7.75001H8.0415C8.20258 7.75001 8.33317 7.88059 8.33317 8.04168C8.33317 8.20276 8.46375 8.33334 8.62483 8.33334H8.9165C9.23867 8.33334 9.49983 8.59451 9.49983 8.91668Z" fill="black"/>
</svg>
