<svg width="14" height="15" viewBox="0 0 14 15" fill="none" xmlns="http://www.w3.org/2000/svg">
<path fill-rule="evenodd" clip-rule="evenodd" d="M5.83333 3.27046C6.47675 3.27046 7 3.79371 7 4.43712C7 5.08054 6.47675 5.60379 5.83333 5.60379C5.18992 5.60379 4.66667 5.08054 4.66667 4.43712C4.66667 3.79371 5.18992 3.27046 5.83333 3.27046ZM5.83333 6.77046C7.12017 6.77046 8.16667 5.72396 8.16667 4.43712C8.16667 3.15029 7.12017 2.10379 5.83333 2.10379C4.5465 2.10379 3.5 3.15029 3.5 4.43712C3.5 5.72396 4.5465 6.77046 5.83333 6.77046ZM5.83333 7.93712C3.58225 7.93712 1.75 9.76879 1.75 12.0205C1.75 12.3425 2.01075 12.6038 2.33333 12.6038C2.65592 12.6038 2.91667 12.3425 2.91667 12.0205C2.91667 10.4122 4.22508 9.10379 5.83333 9.10379C7.44158 9.10379 8.75 10.4122 8.75 12.0205C8.75 12.3425 9.01075 12.6038 9.33333 12.6038C9.65592 12.6038 9.91667 12.3425 9.91667 12.0205C9.91667 9.76879 8.08442 7.93712 5.83333 7.93712ZM11.6667 3.85379H12.25C12.5708 3.85379 12.8333 4.11629 12.8333 4.43712C12.8333 4.75796 12.5708 5.02046 12.25 5.02046H11.6667V5.60379C11.6667 5.92462 11.4042 6.18712 11.0833 6.18712C10.7625 6.18712 10.5 5.92462 10.5 5.60379V5.02046H9.91667C9.59583 5.02046 9.33333 4.75796 9.33333 4.43712C9.33333 4.11629 9.59583 3.85379 9.91667 3.85379H10.5V3.27046C10.5 2.94962 10.7625 2.68712 11.0833 2.68712C11.4042 2.68712 11.6667 2.94962 11.6667 3.27046V3.85379Z" fill="#231F20"/>
<mask id="mask0" mask-type="alpha" maskUnits="userSpaceOnUse" x="1" y="2" width="12" height="11">
<path fill-rule="evenodd" clip-rule="evenodd" d="M5.83333 3.27046C6.47675 3.27046 7 3.79371 7 4.43712C7 5.08054 6.47675 5.60379 5.83333 5.60379C5.18992 5.60379 4.66667 5.08054 4.66667 4.43712C4.66667 3.79371 5.18992 3.27046 5.83333 3.27046ZM5.83333 6.77046C7.12017 6.77046 8.16667 5.72396 8.16667 4.43712C8.16667 3.15029 7.12017 2.10379 5.83333 2.10379C4.5465 2.10379 3.5 3.15029 3.5 4.43712C3.5 5.72396 4.5465 6.77046 5.83333 6.77046ZM5.83333 7.93712C3.58225 7.93712 1.75 9.76879 1.75 12.0205C1.75 12.3425 2.01075 12.6038 2.33333 12.6038C2.65592 12.6038 2.91667 12.3425 2.91667 12.0205C2.91667 10.4122 4.22508 9.10379 5.83333 9.10379C7.44158 9.10379 8.75 10.4122 8.75 12.0205C8.75 12.3425 9.01075 12.6038 9.33333 12.6038C9.65592 12.6038 9.91667 12.3425 9.91667 12.0205C9.91667 9.76879 8.08442 7.93712 5.83333 7.93712ZM11.6667 3.85379H12.25C12.5708 3.85379 12.8333 4.11629 12.8333 4.43712C12.8333 4.75796 12.5708 5.02046 12.25 5.02046H11.6667V5.60379C11.6667 5.92462 11.4042 6.18712 11.0833 6.18712C10.7625 6.18712 10.5 5.92462 10.5 5.60379V5.02046H9.91667C9.59583 5.02046 9.33333 4.75796 9.33333 4.43712C9.33333 4.11629 9.59583 3.85379 9.91667 3.85379H10.5V3.27046C10.5 2.94962 10.7625 2.68712 11.0833 2.68712C11.4042 2.68712 11.6667 2.94962 11.6667 3.27046V3.85379Z" fill="white"/>
</mask>
<g mask="url(#mask0)">
<rect y="0.35379" width="14" height="14" fill="#0D1C2E"/>
</g>
</svg>
