<svg width="12" height="12" viewBox="0 0 12 12" fill="none" xmlns="http://www.w3.org/2000/svg">
<path fill-rule="evenodd" clip-rule="evenodd" d="M1.33333 0.75H4.83333C5.1555 0.75 5.41667 1.01117 5.41667 1.33333V3.66667C5.41667 3.98883 5.1555 4.25 4.83333 4.25H1.33333C1.01117 4.25 0.75 3.98883 0.75 3.66667V1.33333C0.75 1.01117 1.01117 0.75 1.33333 0.75ZM1.91667 3.08333H4.25V1.91667H1.91667V3.08333ZM4.83333 5.41667H1.33333C1.01117 5.41667 0.75 5.67783 0.75 6V10.6667C0.75 10.9888 1.01117 11.25 1.33333 11.25H4.83333C5.1555 11.25 5.41667 10.9888 5.41667 10.6667V6C5.41667 5.67783 5.1555 5.41667 4.83333 5.41667ZM1.91667 10.0833H4.25V6.58333H1.91667V10.0833ZM10.6667 7.75H7.16667C6.8445 7.75 6.58333 8.01117 6.58333 8.33333V10.6667C6.58333 10.9888 6.8445 11.25 7.16667 11.25H10.6667C10.9888 11.25 11.25 10.9888 11.25 10.6667V8.33333C11.25 8.01117 10.9888 7.75 10.6667 7.75ZM7.75 10.0833H10.0833V8.91667H7.75V10.0833ZM10.6667 0.75H7.16667C6.8445 0.75 6.58333 1.01117 6.58333 1.33333V6C6.58333 6.32217 6.8445 6.58333 7.16667 6.58333H10.6667C10.9888 6.58333 11.25 6.32217 11.25 6V1.33333C11.25 1.01117 10.9888 0.75 10.6667 0.75ZM7.75 5.41667H10.0833V1.91667H7.75V5.41667Z" fill="black"/>
</svg>
