<svg width="992" height="1080" viewBox="0 0 992 1080" fill="none" xmlns="http://www.w3.org/2000/svg">
<path opacity="0.2" d="M310.128 367.569C265.829 403.675 222.911 444.078 195.946 495.048C156.29 569.988 156.901 664.257 197.597 733.745C232.053 792.66 290.159 831.023 339.87 876.533C401.116 932.58 450.668 1000.88 497.566 1070.34C522.766 1107.65 548.176 1146.34 584.982 1171.32C636.087 1206.01 704.985 1209.44 765.155 1187.17C825.325 1164.9 876.831 1118.93 913.816 1064.3C933.498 1035.23 949.78 1002.37 952.129 967.812C954.614 931.246 941.367 895.899 944.118 859.333C946.665 825.449 962.79 793.399 981.636 764.586C1006.24 726.966 1036.03 693.001 1070.11 663.695C1108.75 630.518 1152.25 604.047 1191.01 571.138C1229.77 538.23 1264.85 496.565 1276.99 446.997C1288.4 400.399 1278.37 352.619 1266.2 307.73C1246.37 234.378 1220.61 162.763 1189.17 93.5942C1168.06 47.2407 1143.95 1.5221 1108.65 -33.9638C1041.15 -101.822 933.677 -124.121 840.862 -89.5442C763.966 -60.8934 701.87 1.28648 648.395 66.3725C599.631 125.724 555.147 201.221 491.931 245.273C431.613 287.261 367.992 320.427 310.128 367.569Z" fill="#044C85"/>
</svg>
