<svg width="12" height="12" viewBox="0 0 12 12" fill="none" xmlns="http://www.w3.org/2000/svg">
<path fill-rule="evenodd" clip-rule="evenodd" d="M9.5 7.75H10.6667C10.9888 7.75 11.25 8.01117 11.25 8.33333V10.6667C11.25 10.9888 10.9888 11.25 10.6667 11.25H7.16667C6.8445 11.25 6.58333 10.9888 6.58333 10.6667V8.33333C6.58333 8.01117 6.8445 7.75 7.16667 7.75H8.33333V6.58333H3.66667V7.75H4.83333C5.1555 7.75 5.41667 8.01117 5.41667 8.33333V10.6667C5.41667 10.9888 5.1555 11.25 4.83333 11.25H1.33333C1.01117 11.25 0.75 10.9888 0.75 10.6667V8.33333C0.75 8.01117 1.01117 7.75 1.33333 7.75H2.5V6.58333C2.5 5.939 3.02233 5.41667 3.66667 5.41667H5.41667V4.25H4.25C3.92783 4.25 3.66667 3.98883 3.66667 3.66667V1.33333C3.66667 1.01117 3.92783 0.75 4.25 0.75H7.75C8.07217 0.75 8.33333 1.01117 8.33333 1.33333V3.66667C8.33333 3.98883 8.07217 4.25 7.75 4.25H6.58333V5.41667H8.33333C8.97766 5.41667 9.5 5.939 9.5 6.58333V7.75ZM7.16667 1.91667H4.83333V3.08333H7.16667V1.91667ZM4.25 10.0833H1.91667V8.91667H4.25V10.0833ZM7.75 10.0833H10.0833V8.91667H7.75V10.0833Z" fill="black"/>
</svg>
