<svg width="12" height="10" viewBox="0 0 12 10" fill="none" xmlns="http://www.w3.org/2000/svg">
<path fill-rule="evenodd" clip-rule="evenodd" d="M9.48265 4.0848C9.40598 3.85052 9.25689 3.64655 9.05682 3.50223L9.03932 3.4964C8.42499 3.05194 8.16734 2.26281 8.40126 1.54212C8.63518 0.821437 9.30739 0.333328 10.066 0.333328C10.8246 0.333328 11.4968 0.821437 11.7307 1.54212C11.9646 2.26281 11.707 3.05194 11.0926 3.4964C10.8926 3.64072 10.7435 3.84469 10.6668 4.07898L10.4393 4.81302C10.3995 4.93065 10.2895 5.01017 10.1651 5.0111H10.0018C9.8775 5.01017 9.76743 4.93065 9.72765 4.81302L9.48265 4.0848ZM5.41681 5.87913C5.4183 4.61675 4.51873 3.53256 3.27643 3.29951C2.03412 3.06645 0.801923 3.75072 0.344621 4.92759C-0.112682 6.10447 0.334793 7.43971 1.40931 8.10456C1.64606 8.24424 1.8258 8.46295 1.91681 8.72209L2.09764 9.26971C2.18106 9.51752 2.41955 9.67949 2.68098 9.66586H3.00764C3.26906 9.67949 3.50756 9.51752 3.59098 9.26971L3.66681 8.72209C3.75189 8.46655 3.92298 8.24834 4.15098 8.10456C4.93147 7.63283 5.41075 6.79022 5.41681 5.87913ZM2.79181 7.04428C2.14748 7.04428 1.62514 6.52263 1.62514 5.87914C1.62514 5.23564 2.14748 4.71399 2.79181 4.71399C3.43614 4.71399 3.95848 5.23564 3.95848 5.87914C3.95848 6.52263 3.43614 7.04428 2.79181 7.04428ZM10.0835 1.50983C10.4056 1.50983 10.6668 1.77065 10.6668 2.0924C10.6668 2.41415 10.4056 2.67497 10.0835 2.67497C9.76131 2.67497 9.50015 2.41415 9.50015 2.0924C9.50015 1.77065 9.76131 1.50983 10.0835 1.50983ZM8.04181 4.75477L8.33348 5.00527L11.676 8.57063C11.835 8.73962 11.8786 8.98674 11.7868 9.19981L11.7401 9.3105C11.6489 9.52576 11.4376 9.66568 11.2035 9.66587H4.91514C4.82156 9.66517 4.734 9.61968 4.67972 9.54355C4.62544 9.46743 4.61103 9.36991 4.64097 9.28137L4.76931 8.89687C4.85272 8.64906 5.09122 8.48709 5.35264 8.50072H9.90847L6.65931 4.91789C6.50025 4.74889 6.45672 4.50177 6.54848 4.28871L6.59514 4.17802C6.68737 3.96697 6.89541 3.82998 7.12598 3.82847H8.10014C8.22389 3.83111 8.33308 3.90999 8.37431 4.02655L8.55514 4.56252C8.57514 4.60495 8.57514 4.65408 8.55514 4.69651C8.5276 4.73318 8.48438 4.75477 8.43848 4.75477H8.04181Z" fill="black"/>
</svg>
