<svg width="14" height="14" viewBox="0 0 14 14" fill="none" xmlns="http://www.w3.org/2000/svg">
<path fill-rule="evenodd" clip-rule="evenodd" d="M10.4998 5.83333C10.4998 5.51192 10.2385 5.25 9.9165 5.25C9.5945 5.25 9.33317 5.51192 9.33317 5.83333C9.33317 6.15475 9.5945 6.41667 9.9165 6.41667C10.2385 6.41667 10.4998 6.15475 10.4998 5.83333ZM11.6665 5.83333C11.6665 6.79817 10.8813 7.58333 9.9165 7.58333C8.95167 7.58333 8.1665 6.79817 8.1665 5.83333C8.1665 4.8685 8.95167 4.08333 9.9165 4.08333C10.8813 4.08333 11.6665 4.8685 11.6665 5.83333ZM6.4165 4.08333C6.4165 3.43992 5.89325 2.91667 5.24984 2.91667C4.60642 2.91667 4.08317 3.43992 4.08317 4.08333C4.08317 4.72675 4.60642 5.25 5.24984 5.25C5.89325 5.25 6.4165 4.72675 6.4165 4.08333ZM7.58317 4.08333C7.58317 5.37017 6.53667 6.41667 5.24984 6.41667C3.963 6.41667 2.9165 5.37017 2.9165 4.08333C2.9165 2.7965 3.963 1.75 5.24984 1.75C6.53667 1.75 7.58317 2.7965 7.58317 4.08333ZM8.1315 8.77683C8.63842 8.38483 9.26259 8.16667 9.9165 8.16667C11.5248 8.16667 12.8332 9.47508 12.8332 11.0833C12.8332 11.4053 12.5724 11.6667 12.2498 11.6667C11.9273 11.6667 11.6665 11.4053 11.6665 11.0833C11.6665 10.1185 10.8813 9.33333 9.9165 9.33333C9.51809 9.33333 9.1395 9.46983 8.83384 9.71192C9.15117 10.2929 9.33317 10.9591 9.33317 11.6667C9.33317 11.9887 9.07242 12.25 8.74984 12.25C8.42725 12.25 8.1665 11.9887 8.1665 11.6667C8.1665 10.0584 6.85809 8.75 5.24984 8.75C3.64159 8.75 2.33317 10.0584 2.33317 11.6667C2.33317 11.9887 2.07242 12.25 1.74984 12.25C1.42725 12.25 1.1665 11.9887 1.1665 11.6667C1.1665 9.415 2.99875 7.58333 5.24984 7.58333C6.37392 7.58333 7.39242 8.04008 8.1315 8.77683Z" fill="#FF3A29"/>
<mask id="mask0" mask-type="alpha" maskUnits="userSpaceOnUse" x="1" y="1" width="12" height="12">
<path fill-rule="evenodd" clip-rule="evenodd" d="M10.4998 5.83333C10.4998 5.51192 10.2385 5.25 9.9165 5.25C9.5945 5.25 9.33317 5.51192 9.33317 5.83333C9.33317 6.15475 9.5945 6.41667 9.9165 6.41667C10.2385 6.41667 10.4998 6.15475 10.4998 5.83333ZM11.6665 5.83333C11.6665 6.79817 10.8813 7.58333 9.9165 7.58333C8.95167 7.58333 8.1665 6.79817 8.1665 5.83333C8.1665 4.8685 8.95167 4.08333 9.9165 4.08333C10.8813 4.08333 11.6665 4.8685 11.6665 5.83333ZM6.4165 4.08333C6.4165 3.43992 5.89325 2.91667 5.24984 2.91667C4.60642 2.91667 4.08317 3.43992 4.08317 4.08333C4.08317 4.72675 4.60642 5.25 5.24984 5.25C5.89325 5.25 6.4165 4.72675 6.4165 4.08333ZM7.58317 4.08333C7.58317 5.37017 6.53667 6.41667 5.24984 6.41667C3.963 6.41667 2.9165 5.37017 2.9165 4.08333C2.9165 2.7965 3.963 1.75 5.24984 1.75C6.53667 1.75 7.58317 2.7965 7.58317 4.08333ZM8.1315 8.77683C8.63842 8.38483 9.26259 8.16667 9.9165 8.16667C11.5248 8.16667 12.8332 9.47508 12.8332 11.0833C12.8332 11.4053 12.5724 11.6667 12.2498 11.6667C11.9273 11.6667 11.6665 11.4053 11.6665 11.0833C11.6665 10.1185 10.8813 9.33333 9.9165 9.33333C9.51809 9.33333 9.1395 9.46983 8.83384 9.71192C9.15117 10.2929 9.33317 10.9591 9.33317 11.6667C9.33317 11.9887 9.07242 12.25 8.74984 12.25C8.42725 12.25 8.1665 11.9887 8.1665 11.6667C8.1665 10.0584 6.85809 8.75 5.24984 8.75C3.64159 8.75 2.33317 10.0584 2.33317 11.6667C2.33317 11.9887 2.07242 12.25 1.74984 12.25C1.42725 12.25 1.1665 11.9887 1.1665 11.6667C1.1665 9.415 2.99875 7.58333 5.24984 7.58333C6.37392 7.58333 7.39242 8.04008 8.1315 8.77683Z" fill="white"/>
</mask>
<g mask="url(#mask0)">
<rect width="14" height="14" fill="black"/>
</g>
</svg>
